# Made in Blockbench 4.12.5
mtllib bühne.mtl

o cylinder
v -2.4492935982947065e-17 0 0
v -2.4492935982947065e-17 0.25 0
v -0.63985 0 8.326672684688674e-17
v -0.63985 0.25 8.326672684688674e-17
v -0.31992499999999996 0 0.5
v -0.31992499999999996 0.25 0.5
v 0.31992500000000007 0 0.49999999999999994
v 0.31992500000000007 0.25 0.49999999999999994
v 0.63985 0 -8.326672684688674e-17
v 0.63985 0.25 -8.326672684688674e-17
vt 0.24404375 0.875
vt 0.324025 1
vt 0.1640625 1
vt 0 0.515625
vt 0.140625 0.515625
vt 0.140625 0.578125
vt 0 0.578125
vt 0.324025 0.734375
vt 0.24404375 0.859375
vt 0.1640625 0.734375
vt 0.08408125 0.875
vt 0.24404375 0.875
vt 0.1640625 1
vt 0.328125 0.578125
vt 0.484375 0.578125
vt 0.484375 0.640625
vt 0.328125 0.640625
vt 0.24404375 0.859375
vt 0.08408125 0.859375
vt 0.1640625 0.734375
vt 0.0041 1
vt 0.08408125 0.875
vt 0.1640625 1
vt 0.15625 0.515625
vt 0.296875 0.515625
vt 0.296875 0.578125
vt 0.15625 0.578125
vt 0.08408125 0.859375
vt 0.0041 0.734375
vt 0.1640625 0.734375
vn 0 -1 0
vn -0.8423287622095385 0 0.5389640584997734
vn 0 1 0
vn 0 -1 0
vn 1.2246467991473532e-16 0 1
vn 0 1 0
vn 0 -1 0
vn 0.8423287622095385 0 0.538964058499773
vn 0 1 0
usemtl m_00c66fc8-fcfe-0e13-62f7-f56230c0df27
f 5/1/1 3/2/1 1/3/1
f 3/4/2 5/5/2 6/6/2 4/7/2
f 4/8/3 6/9/3 2/10/3
f 7/11/4 5/12/4 1/13/4
f 5/14/5 7/15/5 8/16/5 6/17/5
f 6/18/6 8/19/6 2/20/6
f 9/21/7 7/22/7 1/23/7
f 7/24/8 9/25/8 10/26/8 8/27/8
f 8/28/9 10/29/9 2/30/9
o cuboid
v 0.63985 0.25 0
v 0.63985 0.25 -0.5
v 0.63985 0 0
v 0.63985 0 -0.5
v -0.63985 0.25 0
v -0.63985 0.25 -0.5
v -0.63985 0 0
v -0.63985 0 -0.5
vt 0.4375 0.5625
vt 0.3125 0.5625
vt 0.3125 0.5
vt 0.4375 0.5
vt 0.578125 0.5
vt 0.578125 0.5625
vt 0.453125 0.5625
vt 0.453125 0.5
vt 0 0.59375
vt 0.3125 0.59375
vt 0.3125 0.71875
vt 0 0.71875
vt 0.625 0.8125
vt 0.625 0.9375
vt 0.3125 0.9375
vt 0.3125 0.8125
vt 0.640625 0.65625
vt 0.640625 0.71875
vt 0.328125 0.71875
vt 0.328125 0.65625
vt 0.65625 0.796875
vt 0.34375 0.796875
vt 0.34375 0.734375
vt 0.65625 0.734375
vn 1 0 0
vn -1 0 0
vn 0 1 0
vn 0 -1 0
vn 0 0 1
vn 0 0 -1
usemtl m_00c66fc8-fcfe-0e13-62f7-f56230c0df27
f 12/31/10 11/32/10 13/33/10 14/34/10
f 17/35/11 15/36/11 16/37/11 18/38/11
f 15/39/12 11/40/12 12/41/12 16/42/12
f 14/43/13 13/44/13 17/45/13 18/46/13
f 13/47/14 11/48/14 15/49/14 17/50/14
f 16/51/15 12/52/15 14/53/15 18/54/15